<svg version="1.1" id="Layer_1" xmlns="http://www.w3.org/2000/svg" xmlns:xlink="http://www.w3.org/1999/xlink" x="0px" y="0px"
	 width="100%" viewBox="0 80 500 360"  xml:space="preserve">
<path fill="#3D797C" opacity="1.000000" stroke="none" 
	d="
M436.855408,211.003113 
	C416.890259,211.003372 397.405731,211.012009 377.921234,210.998383 
	C371.669617,210.994019 370.957947,210.323532 370.968567,204.173035 
	C370.995331,188.651932 369.380798,190.071136 384.690399,190.065353 
	C400.844238,190.059250 417.000122,189.918442 433.150665,190.148712 
	C438.228058,190.221115 440.103333,187.988174 440.116180,183.358368 
	C440.129089,178.696198 440.103760,174.033661 440.154297,169.371933 
	C440.205414,164.657654 438.201904,162.438919 433.215454,162.516510 
	C420.894928,162.708160 408.569336,162.597275 396.245850,162.572037 
	C379.497864,162.537750 373.549774,158.188126 371.591034,141.799271 
	C370.441071,132.177307 370.830200,122.128296 372.201599,112.510132 
	C373.882416,100.721703 381.507233,95.033653 393.445953,94.942032 
	C413.095825,94.791222 432.747894,94.947906 452.398376,94.845459 
	C456.476776,94.824196 458.106628,96.518112 458.059448,100.516930 
	C457.859955,117.421799 460.028931,115.767609 443.427704,115.790298 
	C428.439636,115.810783 413.450165,115.910004 398.464264,115.727974 
	C393.935974,115.672966 392.021088,117.598198 391.973969,121.865356 
	C391.927979,126.027687 391.824249,130.192551 391.916748,134.352509 
	C392.051270,140.403778 393.356689,141.688339 399.364319,141.710724 
	C411.354614,141.755402 423.345184,141.714920 435.335663,141.727463 
	C451.184753,141.744034 458.271759,147.018936 460.297211,162.683289 
	C461.519501,172.135895 461.355255,182.031265 460.051392,191.484543 
	C458.152252,205.253662 451.109558,210.565460 436.855408,211.003113 
z"/>
<path fill="#3D797C" opacity="1.000000" stroke="none" 
	d="
M385.751465,275.991272 
	C385.751373,280.455475 385.751373,284.421082 385.751373,288.662476 
	C403.603821,288.662476 421.017426,288.662476 439.044281,288.662476 
	C439.044281,279.316040 439.042450,270.044800 439.045013,260.773529 
	C439.046295,256.106934 439.021912,251.439987 439.072144,246.773895 
	C439.110168,243.239792 440.964508,241.712982 444.488190,241.861588 
	C447.649200,241.994873 450.828308,242.030884 453.985016,241.853409 
	C458.278717,241.611984 460.062225,243.535278 460.007629,247.756699 
	C459.906342,255.588669 459.981537,263.422913 459.981628,271.256195 
	C459.981995,297.589386 459.986572,323.922577 459.978210,350.255768 
	C459.975891,357.529175 459.443298,358.115448 452.433380,358.070740 
	C438.316742,357.980774 438.990997,360.088776 439.037567,344.634796 
	C439.071655,333.312439 439.044281,321.989838 439.044281,310.270020 
	C421.317963,310.270020 403.794983,310.270020 385.751587,310.270020 
	C385.751587,315.165405 385.752045,319.952271 385.751495,324.739166 
	C385.750427,333.739105 385.679138,342.739838 385.776245,351.738708 
	C385.825958,356.343506 383.996124,358.556732 379.176178,358.127045 
	C376.365173,357.876465 373.505341,357.943359 370.682220,358.112671 
	C366.289124,358.376129 364.820557,356.250397 364.828430,352.096924 
	C364.894165,317.430542 364.904816,282.763916 364.816254,248.097641 
	C364.804962,243.678543 366.342072,241.718262 370.950165,241.837021 
	C386.567688,242.239502 385.795197,239.249100 385.754028,256.492615 
	C385.738892,262.825928 385.751556,269.159332 385.751465,275.991272 
z"/>
<path fill="#3D797C" opacity="1.000000" stroke="none" 
	d="
M129.153839,180.779068 
	C132.480621,188.990280 135.754272,196.809052 138.854584,204.695938 
	C140.788193,209.614868 139.753204,211.160492 134.450958,211.047562 
	C115.129768,210.636017 120.166016,214.494843 112.945595,196.842270 
	C103.257431,173.156494 93.844078,149.358337 84.304222,125.611847 
	C83.702965,124.115196 83.027878,122.648209 81.861366,119.952309 
	C75.564949,135.837021 69.688797,150.661499 63.394871,166.539932 
	C68.887001,166.539932 73.603714,166.678116 78.308113,166.496735 
	C82.155930,166.348373 84.619713,167.732376 85.867004,171.497147 
	C86.910156,174.645752 88.439751,177.631302 89.525436,180.768127 
	C91.105583,185.333603 89.334877,187.919907 84.526329,187.975662 
	C75.868187,188.076065 67.205391,188.126678 58.550262,187.936935 
	C55.736408,187.875244 54.416782,188.817520 53.494095,191.429398 
	C51.669022,196.595703 49.355637,201.588577 47.497028,206.744308 
	C46.281166,210.117050 44.146526,211.335129 40.665600,211.129639 
	C37.014755,210.914108 33.341049,211.109985 29.677851,211.073959 
	C24.005239,211.018188 23.008589,209.725922 25.109446,204.416916 
	C30.979248,189.583542 36.992283,174.806824 42.959248,160.011948 
	C50.293430,141.827103 57.496887,123.587692 65.034485,105.487488 
	C69.167023,95.563934 77.958885,91.217751 87.049667,94.085167 
	C93.040710,95.974869 96.621948,100.289505 98.923271,106.013206 
	C108.903664,130.835785 118.983673,155.618317 129.153839,180.779068 
z"/>
<path fill="#3D7A7C" opacity="1.000000" stroke="none" 
	d="
M326.995361,358.082489 
	C314.168640,358.081085 301.840302,358.142700 289.512848,358.064270 
	C268.093475,357.928040 257.257538,349.694611 255.670898,328.425049 
	C254.179749,308.435913 254.652420,288.129761 256.291931,268.129547 
	C257.696472,250.995804 268.886749,242.276352 286.026489,242.014847 
	C303.681488,241.745438 321.343597,241.977646 339.001373,241.836273 
	C342.830688,241.805618 344.533936,243.452744 344.713867,247.079742 
	C344.722137,247.246033 344.721344,247.412842 344.722748,247.579422 
	C344.871399,265.012146 345.487885,262.733978 330.368073,262.788239 
	C316.707642,262.837250 303.045898,262.718994 289.386871,262.869568 
	C280.019165,262.972839 276.193420,266.304932 275.965271,275.781616 
	C275.576721,291.921265 275.590210,308.084167 275.985596,324.223846 
	C276.215240,333.598236 280.165771,336.955170 289.545471,337.015015 
	C305.537842,337.117096 321.531219,337.046051 337.524170,337.068176 
	C343.477997,337.076385 344.660828,338.151062 344.719727,343.897491 
	C344.892120,360.721283 345.052094,357.871124 330.992584,358.080139 
	C329.826660,358.097473 328.660309,358.082458 326.995361,358.082489 
z"/>
<path fill="#FD6007" opacity="1.000000" stroke="none" 
	d="
M146.988007,331.919220 
	C146.591309,320.694214 145.984131,309.893799 146.001312,299.094330 
	C146.009857,293.723175 151.316040,289.147125 157.308731,289.101562 
	C181.138580,288.920288 204.970367,289.004639 228.801208,288.924713 
	C231.964783,288.914093 233.320770,290.518616 233.691040,293.384857 
	C233.712357,293.549896 233.725616,293.717041 233.727112,293.883362 
	C233.891006,312.180511 234.892487,309.839478 219.686264,309.864655 
	C203.854431,309.890839 188.022507,309.870483 172.190628,309.870483 
	C170.558746,309.870483 168.926865,309.870483 166.904892,309.870483 
	C166.745438,312.191895 166.550751,314.129669 166.488937,316.071655 
	C166.087540,328.679474 169.921021,332.774017 182.390289,332.830200 
	C197.555252,332.898468 212.722778,332.987335 227.884857,332.767914 
	C232.698792,332.698242 234.550598,334.464752 234.317719,339.184082 
	C234.087982,343.839355 234.605011,348.556946 234.050018,353.157410 
	C233.843964,354.865479 231.536713,357.671997 230.167648,357.683929 
	C211.180359,357.849579 192.134827,358.454987 173.216629,357.220154 
	C157.487778,356.193512 151.144440,349.027130 146.988007,331.919220 
z"/>
<path fill="#3E7A7D" opacity="1.000000" stroke="none" 
	d="
M84.459023,356.198181 
	C78.371307,356.905365 72.524155,357.570679 66.729271,357.260254 
	C65.782959,357.209564 64.366951,352.856476 64.352211,350.484558 
	C64.183563,323.340790 64.244423,296.195587 64.244087,269.050781 
	C64.244064,267.231842 64.244080,265.412872 64.244080,262.799347 
	C62.407753,262.799347 60.826164,262.799377 59.244576,262.799347 
	C49.585686,262.799072 39.925667,262.711823 30.268410,262.837372 
	C25.836613,262.895020 23.922874,261.056946 23.966150,256.580902 
	C24.128572,239.781845 22.454479,241.936188 38.098957,241.900833 
	C64.744034,241.840591 91.389351,241.881088 118.034561,241.886963 
	C124.840096,241.888458 125.560013,242.586517 125.644753,249.141403 
	C125.848984,264.939636 125.461716,262.696991 112.245735,262.791290 
	C103.753403,262.851868 95.260521,262.832703 86.767952,262.866028 
	C86.451813,262.867279 86.136368,263.045258 85.141296,263.346588 
	C85.141296,264.908997 85.141296,266.677551 85.141289,268.446136 
	C85.141235,295.424408 85.150810,322.402710 85.122787,349.380951 
	C85.120552,351.531189 84.858376,353.681183 84.459023,356.198181 
z"/>
<path fill="#3D7A7D" opacity="1.000000" stroke="none" 
	d="
M286.388855,174.363464 
	C286.596558,176.132401 286.722900,177.459534 286.915192,178.777069 
	C288.074646,186.721237 291.458344,189.907425 299.481293,189.984009 
	C314.131714,190.123840 328.784241,190.039795 343.435822,190.066788 
	C349.600800,190.078156 350.612823,191.078033 350.673065,197.325684 
	C350.831726,213.790726 350.839996,210.925308 337.056519,211.057190 
	C324.570374,211.176666 312.081329,211.166443 299.595001,211.054916 
	C278.385620,210.865479 267.107361,201.054932 266.211060,179.724319 
	C265.100739,153.299118 265.458008,126.812141 265.189880,100.351768 
	C265.149689,96.385292 267.080078,94.763985 271.094910,94.842613 
	C288.175171,95.177124 286.092346,92.519302 286.176117,109.487152 
	C286.282135,130.963593 286.288544,152.440536 286.388855,174.363464 
z"/>
<path fill="#3C797C" opacity="1.000000" stroke="none" 
	d="
M160.008423,133.000000 
	C160.009232,122.002472 160.103653,111.503723 159.966843,101.007988 
	C159.908569,96.537956 161.678436,94.529533 166.222366,94.853363 
	C169.040726,95.054222 171.900345,95.078316 174.714325,94.849014 
	C179.626709,94.448715 181.088837,96.792038 181.064804,101.386986 
	C180.945374,124.214302 180.980209,147.042694 181.028000,169.870544 
	C181.064728,187.409744 183.773743,190.065079 201.283859,190.066055 
	C213.780914,190.066757 226.280197,190.202133 238.773911,189.998169 
	C243.542557,189.920319 245.335220,191.761200 245.275665,196.464127 
	C245.059982,213.499985 246.790863,210.937012 231.110428,211.058197 
	C218.614227,211.154785 206.115295,211.175156 193.619873,211.029999 
	C173.537445,210.796738 162.718689,201.462769 161.175842,181.420471 
	C159.951157,165.511292 160.337418,149.478119 160.008423,133.000000 
z"/>
<path fill="#FD5F07" opacity="1.000000" stroke="none" 
	d="
M186.000366,262.509949 
	C174.191849,262.474854 162.882050,262.331451 151.575531,262.465546 
	C147.348877,262.515686 145.478363,260.898804 145.479614,256.654755 
	C145.484863,238.947266 144.476471,241.597183 159.734146,241.525040 
	C182.184448,241.418900 204.635620,241.485733 227.086411,241.506378 
	C233.562210,241.512329 234.300751,242.210037 234.318436,248.636612 
	C234.361496,264.282990 235.413849,262.588043 220.426071,262.597290 
	C209.117523,262.604309 197.808960,262.542877 186.000366,262.509949 
z"/>
</svg>