<?xml version="1.0" standalone="no"?>
<!DOCTYPE svg PUBLIC "-//W3C//DTD SVG 20010904//EN"
 "http://www.w3.org/TR/2001/REC-SVG-20010904/DTD/svg10.dtd">
<svg version="1.0" xmlns="http://www.w3.org/2000/svg"
 width="500.000000pt" height="500.000000pt" viewBox="0 0 500.000000 500.000000"
 preserveAspectRatio="xMidYMid meet">

<g transform="translate(0.000000,500.000000) scale(0.100000,-0.100000)"
fill="#000000" stroke="none">
<path d="M735 4056 c-17 -7 -42 -27 -56 -43 -32 -39 -442 -1054 -437 -1085 3
-22 8 -23 83 -26 121 -4 117 -8 167 118 l43 110 162 0 c133 0 164 3 177 16 9
8 16 20 16 25 0 13 -52 142 -63 157 -6 8 -41 12 -109 12 -55 0 -98 4 -96 9
127 325 182 461 187 461 3 0 85 -197 181 -437 96 -240 182 -445 190 -455 13
-16 27 -19 105 -16 83 3 90 5 93 24 3 19 -379 979 -422 1062 -25 48 -72 76
-135 79 -33 2 -69 -2 -86 -11z"/>
<path d="M1606 4044 c-14 -13 -16 -61 -16 -367 0 -194 5 -393 10 -444 21 -202
91 -294 245 -322 84 -16 567 -15 583 1 7 7 12 44 12 95 0 80 -1 84 -26 93 -14
6 -140 10 -283 10 -245 0 -260 1 -284 20 -15 12 -31 38 -37 58 -6 22 -10 193
-10 435 0 255 -4 405 -10 418 -9 16 -22 19 -90 19 -58 0 -83 -4 -94 -16z"/>
<path d="M2662 4051 c-10 -6 -12 -95 -10 -447 3 -427 4 -441 26 -507 28 -84
85 -145 158 -172 42 -16 88 -19 337 -23 215 -3 292 -1 303 8 19 16 20 175 2
187 -7 4 -138 10 -291 13 -277 5 -279 5 -298 28 -35 44 -39 89 -39 497 0 299
-3 404 -12 413 -14 14 -155 16 -176 3z"/>
<path d="M3863 4050 c-74 -17 -124 -75 -149 -171 -23 -91 -15 -291 15 -370 42
-111 65 -118 383 -119 274 0 271 0 284 -66 9 -51 -1 -180 -15 -198 -11 -13
-64 -16 -337 -18 -276 -3 -326 -5 -334 -18 -5 -8 -10 -47 -10 -87 0 -112 -27
-105 384 -101 297 3 356 6 386 19 46 21 74 53 102 114 20 45 23 65 23 200 0
170 -11 223 -58 280 -57 70 -80 75 -358 75 -187 0 -249 3 -257 13 -29 34 -25
212 4 242 13 13 62 15 318 15 221 0 305 3 314 12 15 15 16 142 2 169 -10 18
-24 19 -338 18 -180 -1 -342 -4 -359 -9z"/>
<path d="M246 2574 c-20 -19 -22 -142 -3 -167 10 -14 38 -17 202 -19 l190 -3
3 -464 c1 -322 6 -468 13 -478 8 -8 35 -13 81 -13 119 0 108 -50 108 490 l0
470 198 2 197 3 3 83 c2 53 -1 89 -9 98 -10 12 -91 14 -490 14 -421 0 -479 -2
-493 -16z"/>
<path d="M1462 2578 c-7 -7 -12 -42 -12 -88 0 -46 5 -81 12 -88 17 -17 839
-17 856 0 16 16 16 160 0 176 -17 17 -839 17 -856 0z"/>
<path d="M2800 2583 c-143 -24 -224 -112 -249 -273 -14 -83 -14 -515 -1 -600
14 -84 60 -180 105 -214 74 -56 94 -59 433 -64 235 -3 317 -1 327 8 11 9 15
35 15 96 0 72 -3 85 -19 94 -12 6 -126 10 -301 10 -226 0 -286 3 -309 15 -52
26 -56 53 -56 360 0 248 2 284 18 312 30 57 36 58 362 63 l300 5 3 83 c2 53
-1 89 -9 98 -9 11 -64 14 -303 13 -160 -1 -302 -4 -316 -6z"/>
<path d="M3652 2578 c-16 -16 -17 -1099 -2 -1129 9 -16 22 -19 89 -19 53 0 82
4 90 13 7 9 12 94 13 243 l3 229 267 3 267 2 3 -235 c2 -196 6 -237 18 -245
19 -13 151 -13 170 0 13 8 15 82 15 570 0 488 -2 562 -15 570 -19 13 -151 13
-170 0 -12 -8 -16 -47 -18 -235 l-3 -225 -270 0 -269 0 0 223 c0 160 -3 226
-12 235 -16 16 -160 16 -176 0z"/>
<path d="M1530 2107 c-20 -7 -44 -27 -58 -47 -23 -34 -24 -39 -19 -195 6 -203
25 -273 95 -345 74 -76 98 -80 463 -80 271 0 308 2 313 16 11 29 7 199 -6 212
-9 9 -88 12 -292 12 -248 0 -285 2 -316 18 -43 21 -59 61 -59 154 l-1 68 333
2 332 3 3 83 c2 53 -1 89 -9 98 -9 12 -75 14 -378 13 -256 0 -376 -4 -401 -12z"/>
</g>
</svg>
